<svg aria-hidden="true" style="width:0;height:0;position:absolute;overflow:hidden" xmlns="http://www.w3.org/2000/svg"><defs><symbol id="logo" viewBox="0 0 105 32"><path fill="#fff" style="fill:var(--color1,#fff)" d="M6.48 31.6H0V0h7.24c1.493 0 2.707.08 3.64.24.96.133 1.707.427 2.24.88s.893 1.107 1.08 1.96c.213.827.32 1.947.32 3.36v3.28c0 .827-.093 1.507-.28 2.04s-.427.96-.72 1.28c-.267.32-.56.56-.88.72-.32.133-.613.227-.88.28v.16c.4.107.76.267 1.08.48.347.187.64.48.88.88s.427.933.56 1.6c.16.64.24 1.467.24 2.48V31.6H8v-14c0-.347-.04-.573-.12-.68-.08-.133-.293-.2-.64-.2h-.76V31.6zm0-19.96h.76c.347 0 .56-.053.64-.16.08-.133.12-.373.12-.72V6.44c0-.347-.04-.573-.12-.68-.08-.133-.293-.2-.64-.2h-.76v6.08zm23.222 15.28c0 1.12-.093 2.013-.28 2.68-.16.667-.48 1.187-.96 1.56-.453.347-1.093.573-1.92.68-.8.107-1.853.16-3.16.16-1.28 0-2.333-.053-3.16-.16s-1.467-.333-1.92-.68c-.453-.373-.773-.893-.96-1.56-.16-.667-.24-1.56-.24-2.68v-14.6c0-1.12.08-2.013.24-2.68.187-.667.507-1.173.96-1.52.453-.373 1.093-.613 1.92-.72s1.88-.16 3.16-.16c1.307 0 2.36.053 3.16.16.827.107 1.467.347 1.92.72.48.347.8.853.96 1.52.187.667.28 1.56.28 2.68v14.6zm-7.04-1.12c0 .347.04.587.12.72.08.107.28.16.6.16.347 0 .56-.053.64-.16.08-.133.12-.373.12-.72V13.44c0-.347-.04-.573-.12-.68-.08-.133-.293-.2-.64-.2-.32 0-.52.067-.6.2-.08.107-.12.333-.12.68V25.8zM38.298 0v8.72c.347-.48.773-.813 1.28-1 .533-.187 1.187-.28 1.96-.28s1.4.093 1.88.28c.48.16.84.427 1.08.8.267.373.44.88.52 1.52.107.613.16 1.373.16 2.28v14.6c0 .933-.053 1.72-.16 2.36-.08.613-.253 1.107-.52 1.48s-.653.64-1.16.8c-.507.16-1.16.24-1.96.24-.907 0-1.64-.093-2.2-.28-.56-.213-.987-.547-1.28-1v1.08h-5.32V0h5.72zm1.32 13.44c0-.32-.04-.547-.12-.68-.053-.133-.227-.2-.52-.2-.267 0-.467.053-.6.16-.107.08-.187.213-.24.4v13a.989.989 0 0 0 .24.44c.133.08.333.12.6.12.293 0 .467-.067.52-.2.08-.133.12-.36.12-.68V13.44zm14.189-9.28h-5.68V0h5.68v4.16zm0 27.44h-5.68V7.64h5.68V31.6zm16.264 0h-5.76V13.44c0-.32-.04-.547-.12-.68-.054-.133-.227-.2-.52-.2-.267 0-.467.053-.6.16-.107.08-.2.213-.28.4V31.6h-5.72V7.64h5.32v1.08c.293-.453.72-.773 1.28-.96.56-.213 1.293-.32 2.2-.32.8 0 1.466.08 2 .24.56.16 1 .427 1.32.8s.546.88.68 1.52c.133.613.2 1.387.2 2.32V31.6zm8.854 0h-5.8v-5.64h5.8v5.64zM104.573 0l-3.28 31.6h-8.16l-1.08-22.92h-.16l-1.32 22.92h-8.28L79.853 0h6.52l.68 22.16h.16L88.173 0h8l.68 22.16h.16l1-22.16h6.56z"/></symbol><symbol id="number-1" viewBox="0 0 45 32"><path d="M11.758.29c1.956 0 3.641.451 5.056 1.354 1.444.903 2.633 2.122 3.566 3.656.933 1.505 1.625 3.19 2.076 5.056.481 1.866.722 3.777.722 5.733a23.23 23.23 0 0 1-.722 5.733c-.451 1.866-1.144 3.566-2.076 5.101-.933 1.505-2.122 2.708-3.566 3.611-1.414.903-3.1 1.354-5.056 1.354-1.926 0-3.611-.451-5.056-1.354s-2.633-2.106-3.566-3.611c-.933-1.535-1.64-3.235-2.122-5.101a24.693 24.693 0 0 1-.677-5.733c0-1.956.226-3.867.677-5.733C1.495 8.49 2.203 6.805 3.136 5.3c.933-1.535 2.122-2.753 3.566-3.656S9.832.29 11.758.29zm0 3.972c-1.234 0-2.332.346-3.295 1.038-.933.662-1.715 1.565-2.347 2.708-.632 1.113-1.113 2.377-1.444 3.792-.331 1.384-.497 2.814-.497 4.288s.165 2.919.497 4.333a15.028 15.028 0 0 0 1.444 3.792c.632 1.113 1.414 2.016 2.347 2.708.963.662 2.061.993 3.295.993s2.317-.331 3.25-.993c.963-.692 1.76-1.595 2.392-2.708a14.999 14.999 0 0 0 1.444-3.792c.331-1.414.497-2.859.497-4.333s-.166-2.904-.497-4.288c-.331-1.414-.812-2.678-1.444-3.792-.632-1.143-1.429-2.046-2.392-2.708-.933-.692-2.016-1.038-3.25-1.038zm33.539 23.337v3.611H28.912v-3.611h6.003V7.918c-.903.782-1.836 1.324-2.799 1.625s-1.926.542-2.889.722V6.383c1.745-.451 3.265-1.189 4.559-2.212S36.148 2.08 36.991.966h1.986v26.632h6.319z"/></symbol><symbol id="number-2" viewBox="0 0 46 32"><path d="M11.758.29c1.956 0 3.641.451 5.056 1.354 1.444.903 2.633 2.122 3.566 3.656.933 1.505 1.625 3.19 2.076 5.056.481 1.866.722 3.777.722 5.733a23.23 23.23 0 0 1-.722 5.733c-.451 1.866-1.144 3.566-2.076 5.101-.933 1.505-2.122 2.708-3.566 3.611-1.414.903-3.1 1.354-5.056 1.354-1.926 0-3.611-.451-5.056-1.354s-2.633-2.106-3.566-3.611c-.933-1.535-1.64-3.235-2.122-5.101a24.693 24.693 0 0 1-.677-5.733c0-1.956.226-3.867.677-5.733C1.495 8.49 2.203 6.805 3.136 5.3c.933-1.535 2.122-2.753 3.566-3.656S9.832.29 11.758.29zm0 3.972c-1.234 0-2.332.346-3.295 1.038-.933.662-1.715 1.565-2.347 2.708-.632 1.113-1.113 2.377-1.444 3.792-.331 1.384-.497 2.814-.497 4.288s.165 2.919.497 4.333a15.028 15.028 0 0 0 1.444 3.792c.632 1.113 1.414 2.016 2.347 2.708.963.662 2.061.993 3.295.993s2.317-.331 3.25-.993c.963-.692 1.76-1.595 2.392-2.708a14.999 14.999 0 0 0 1.444-3.792c.331-1.414.497-2.859.497-4.333s-.166-2.904-.497-4.288c-.331-1.414-.812-2.678-1.444-3.792-.632-1.143-1.429-2.046-2.392-2.708-.933-.692-2.016-1.038-3.25-1.038zM35.592.29c1.986 0 3.731.361 5.236 1.083s2.678 1.76 3.521 3.115c.843 1.324 1.264 2.904 1.264 4.74 0 1.956-.497 3.822-1.489 5.597-.993 1.745-2.407 3.611-4.243 5.597a1354.937 1354.937 0 0 1-6.455 7.042h12.413v3.747H26.881v-1.625a527.144 527.144 0 0 1 7.944-8.712c2.227-2.407 3.942-4.469 5.146-6.184s1.805-3.235 1.805-4.559c0-1.956-.647-3.415-1.941-4.378-1.264-.993-2.799-1.49-4.604-1.49-1.475 0-2.874.376-4.198 1.128-1.294.722-2.377 1.475-3.25 2.257V3.405c.782-.722 1.851-1.414 3.205-2.076C32.342.637 33.877.291 35.592.291z"/></symbol><symbol id="number-3" viewBox="0 0 45 32"><path d="M11.758.29c1.956 0 3.641.451 5.056 1.354 1.444.903 2.633 2.122 3.566 3.656.933 1.505 1.625 3.19 2.076 5.056.481 1.866.722 3.777.722 5.733a23.23 23.23 0 0 1-.722 5.733c-.451 1.866-1.144 3.566-2.076 5.101-.933 1.505-2.122 2.708-3.566 3.611-1.414.903-3.1 1.354-5.056 1.354-1.926 0-3.611-.451-5.056-1.354s-2.633-2.106-3.566-3.611c-.933-1.535-1.64-3.235-2.122-5.101a24.693 24.693 0 0 1-.677-5.733c0-1.956.226-3.867.677-5.733C1.495 8.49 2.203 6.805 3.136 5.3c.933-1.535 2.122-2.753 3.566-3.656S9.832.29 11.758.29zm0 3.972c-1.234 0-2.332.346-3.295 1.038-.933.662-1.715 1.565-2.347 2.708-.632 1.113-1.113 2.377-1.444 3.792-.331 1.384-.497 2.814-.497 4.288s.165 2.919.497 4.333a15.028 15.028 0 0 0 1.444 3.792c.632 1.113 1.414 2.016 2.347 2.708.963.662 2.061.993 3.295.993s2.317-.331 3.25-.993c.963-.692 1.76-1.595 2.392-2.708a14.999 14.999 0 0 0 1.444-3.792c.331-1.414.497-2.859.497-4.333s-.166-2.904-.497-4.288c-.331-1.414-.812-2.678-1.444-3.792-.632-1.143-1.429-2.046-2.392-2.708-.933-.692-2.016-1.038-3.25-1.038zM35.14.29c1.986 0 3.747.376 5.281 1.128 1.565.752 2.784 1.791 3.656 3.115.903 1.294 1.354 2.784 1.354 4.469 0 1.354-.346 2.498-1.038 3.431-.662.933-1.459 1.67-2.392 2.212s-1.79.918-2.573 1.128c.782.211 1.64.632 2.573 1.264.933.602 1.73 1.399 2.392 2.392.692.993 1.038 2.167 1.038 3.521 0 1.685-.436 3.205-1.309 4.559-.843 1.354-2.031 2.422-3.566 3.205s-3.295 1.174-5.281 1.174c-1.775 0-3.37-.301-4.785-.903-1.384-.602-2.468-1.264-3.25-1.986V24.53c.692.482 1.414 1.008 2.167 1.58s1.61 1.068 2.573 1.49 2.091.632 3.385.632c1.806 0 3.295-.482 4.469-1.444s1.76-2.317 1.76-4.063c0-.993-.316-1.881-.948-2.663-.602-.782-1.399-1.399-2.392-1.851a7.252 7.252 0 0 0-3.115-.677h-2.708v-3.611h2.708c1.896 0 3.446-.406 4.649-1.219 1.204-.843 1.805-2.001 1.805-3.476 0-1.053-.301-1.971-.903-2.753s-1.399-1.399-2.392-1.851c-.993-.451-2.091-.677-3.295-.677-1.565 0-2.889.346-3.972 1.038a16.461 16.461 0 0 0-2.889 2.302V2.818c.782-.722 1.791-1.324 3.024-1.806A11.074 11.074 0 0 1 35.138.29z"/></symbol><symbol id="square" viewBox="0 0 32 32"><path fill="#5221e6" style="fill:var(--color1,#5221e6)" d="M30.222 23.111v7.111H17.778v-7.111h12.444zm0-21.333V16H17.778V1.778h12.444zM10.667 16H1.778v14.222h8.889V16zm0-14.222v7.111H1.778V1.778h8.889zM17.778 0C16.796 0 16 .796 16 1.778V16c0 .982.796 1.778 1.778 1.778h12.444c.982 0 1.778-.796 1.778-1.778V1.778C32 .796 31.204 0 30.222 0H17.778zm0 21.333c-.982 0-1.778.796-1.778 1.778v7.111c0 .982.796 1.778 1.778 1.778h12.444c.982 0 1.778-.796 1.778-1.778v-7.111c0-.982-.796-1.778-1.778-1.778H17.778zM0 16c0-.982.796-1.778 1.778-1.778h8.889c.982 0 1.778.796 1.778 1.778v14.222c0 .982-.796 1.778-1.778 1.778H1.778A1.778 1.778 0 0 1 0 30.222V16zM1.778 0C.796 0 0 .796 0 1.778v7.111c0 .982.796 1.778 1.778 1.778h8.889c.982 0 1.778-.796 1.778-1.778V1.778C12.445.796 11.649 0 10.667 0H1.778z"/></symbol><symbol id="pen" viewBox="0 0 32 32"><path fill="#5221e6" style="fill:var(--color1,#5221e6)" d="m17.221 1.2 13.578 13.578 1.2-1.2L18.421 0l-1.2 1.2zM19.234 7.601a2.546 2.546 0 0 0-2.803-.54L7.008 11.1a4.227 4.227 0 0 0-2.352 2.56 469.703 469.703 0 0 0-2.981 9.346A130.81 130.81 0 0 0 .5 27.045c-.148.552-.27 1.036-.355 1.427-.079.364-.144.723-.144.981v.352l2.194 2.194h.352c.259 0 .617-.065.981-.144.391-.085.875-.206 1.427-.355 1.105-.297 2.51-.709 4.039-1.175a467.62 467.62 0 0 0 9.346-2.981 4.23 4.23 0 0 0 2.56-2.352l4.039-9.423a2.546 2.546 0 0 0-.54-2.803l-5.164-5.164zm-2.135 1.021a.848.848 0 0 1 .934.18l5.164 5.164a.848.848 0 0 1 .18.934l-4.039 9.424a2.528 2.528 0 0 1-1.531 1.408 467.251 467.251 0 0 1-9.31 2.97c-1.522.464-2.906.87-3.984 1.16-.539.145-.994.258-1.347.335l-.207.043 8.671-8.672a2.547 2.547 0 0 0 2.898-4.098 2.546 2.546 0 0 0-4.098 2.898L1.758 29.04c.012-.063.027-.132.043-.207.077-.353.19-.808.335-1.347a129.78 129.78 0 0 1 1.16-3.984 467.251 467.251 0 0 1 2.97-9.31 2.528 2.528 0 0 1 1.408-1.531l9.424-4.039z"/></symbol><symbol id="circle" viewBox="0 0 32 32"><path fill="none" stroke="#5221e6" style="stroke:var(--color1,#5221e6)" stroke-width="2" d="M31 16c0 8.284-6.716 15-15 15S1 24.284 1 16C1 7.716 7.716 1 16 1s15 6.716 15 15z"/><path fill="#5221e6" style="fill:var(--color1,#5221e6)" d="m21 16-7.5 4.33v-8.66L21 16z"/></symbol><symbol id="camera" viewBox="0 0 32 32"><path fill="#5221e6" style="fill:var(--color1,#5221e6)" d="M29.828 8.236H26.9l-.673-3.034a2.794 2.794 0 0 0-2.746-2.201H13.317c-1.33 0-2.459.905-2.746 2.201l-.673 3.034h-.695V6.941c0-.73-.595-1.323-1.325-1.323H3.592c-.731 0-1.325.594-1.325 1.323v1.295h-.094a2.173 2.173 0 0 0-2.172 2.169v14.688c0 1.196.975 2.169 2.172 2.169h10.075c1.773 1.147 3.886 1.814 6.152 1.814s4.378-.667 6.151-1.814h5.278a2.173 2.173 0 0 0 2.172-2.169V10.405a2.173 2.173 0 0 0-2.172-2.169zM11.79 5.471c.16-.72.787-1.223 1.526-1.223H23.48c.739 0 1.366.503 1.526 1.223l.613 2.765h-1.07c-1.773-1.147-3.886-1.814-6.151-1.814s-4.378.667-6.152 1.814h-1.07l.613-2.765zm-8.274 1.47c0-.042.034-.075.075-.075h4.286c.042 0 .075.034.075.075v1.295H3.515V6.941zm1.503 19.072v-6.777a.624.624 0 0 0-1.25 0v6.777H2.172a.922.922 0 0 1-.922-.921V10.404c0-.508.414-.921.922-.921h8.477c-2.212 2.068-3.597 5.008-3.597 8.265s1.385 6.197 3.597 8.265H5.018zm19.15 0a10.083 10.083 0 0 1-11.542 0c-2.613-1.823-4.325-4.848-4.325-8.265s1.712-6.441 4.325-8.265a10.083 10.083 0 0 1 11.542 0c2.613 1.823 4.325 4.848 4.325 8.265s-1.712 6.441-4.325 8.265zm6.581-.921a.923.923 0 0 1-.922.921h-3.68c2.212-2.068 3.597-5.008 3.597-8.265s-1.385-6.197-3.597-8.265h3.68c.509 0 .922.413.922.921v14.688z"/><path fill="#5221e6" style="fill:var(--color1,#5221e6)" d="M18.37 10.111c-4.248 0-7.704 3.456-7.704 7.704s3.456 7.704 7.704 7.704c.619 0 1.235-.074 1.831-.219a.586.586 0 1 0-.278-1.14 6.537 6.537 0 0 1-8.083-6.344 6.537 6.537 0 0 1 6.53-6.53 6.537 6.537 0 0 1 6.53 6.53 6.488 6.488 0 0 1-1.121 3.659.586.586 0 1 0 .972.659 7.662 7.662 0 0 0 1.323-4.318c0-4.248-3.456-7.704-7.704-7.704zM4.741 11.296c-1.307 0-2.37 1.063-2.37 2.37s1.063 2.37 2.37 2.37c1.307 0 2.37-1.063 2.37-2.37s-1.063-2.37-2.37-2.37zm0 3.468a1.098 1.098 0 0 1 0-2.194 1.098 1.098 0 0 1 0 2.194z"/><path fill="#5221e6" style="fill:var(--color1,#5221e6)" d="M23.692 23.625a.644.644 0 0 0-.089-.213.532.532 0 0 0-.163-.164.595.595 0 0 0-.658 0c-.032.022-.062.047-.09.074s-.052.057-.073.09a.625.625 0 0 0-.089.213.571.571 0 0 0 .089.445.532.532 0 0 0 .163.163.595.595 0 0 0 .748-.073.597.597 0 0 0 .162-.535z"/></symbol><symbol id="brand-1" viewBox="0 0 130 32"><path fill="#8491a0" style="fill:var(--color1,#8491a0)" d="M58.884 15.478c4.094-1.351 4.836-4.767 4.827-7.55C63.703 3.679 60.685.003 51.752.003L35.078 0v31.934h16.631c8.987 0 12.293-4.586 12.293-9.18 0-5.563-5.118-7.276-5.118-7.276zM42.99 6.947l11.267.008c1.267.223 2.19 1.294 2.19 2.551 0 1.286-.989 2.496-2.295 2.673l-11.154.017-.008-5.249zm10.686 17.545H42.99v-5.347l10.973.003c1.362.156 2.394 1.282 2.394 2.619 0 1.457-1.221 2.702-2.681 2.725zM101.339.004h28.177l-.016 6.97h-20.332l.019 5.147h18.33v7.006h-18.33v5.57h20.335L129.518 32h-28.18V.004zM84.95.046H67.911V31.99h7.825V19.066l8.617-.01c2.468.038 4.387 2.047 4.387 4.525v8.381l7.659-.003-.015-10.31c0-4.776-4.641-6.187-4.641-6.187s4.745-1.412 4.745-7.058c0-6.908-5.973-8.359-11.537-8.359zm4.271 9.911c-.141 1.05-1.197 2.189-2.516 2.189l-10.997.004V7.035H86.71c1.313 0 2.343.962 2.51 2.225v.697zM30.003 24.271c-.113.003-10.696.206-14.349-.148-5.885-.573-7.969-4.906-7.969-8.442 0-4.409 3.024-7.654 7.709-8.264 2.229-.29 14.416-.153 14.545-.152l.256.003.026-7.264-.259.001L16.168.03c-1.536.093-4.082.247-6.689 1.307a16.341 16.341 0 0 0-6.312 5.072A15.808 15.808 0 0 0-.001 15.93c0 1.086.086 2.165.263 3.199.993 4.843 4.187 8.851 8.767 11.007 1.547.676 3.932 1.488 8.742 1.756l2.591.054 9.87.01.027-7.688-.257.003z"/></symbol><symbol id="brand-2" viewBox="0 0 78 32"><path fill="#8491a0" style="fill:var(--color1,#8491a0)" d="M21.531 15.557c-1.528 4.65-5.266 7.27-10.319 7.27C4.927 22.827 0 17.84 0 11.456 0 5.158 4.926 0 10.999 0c5.648 0 11.084 4.65 11.042 12.385H3.652c.467 4.524 3.949 7.187 7.559 7.187 3.1 0 5.308-1.48 6.498-4.016h3.822zm-3.482-6.384c-.892-3.551-3.865-5.918-7.05-5.918-3.015 0-6.2 2.199-7.134 5.918h14.184zm16.69 13.654c-3.143 0-5.861-1.691-7.432-3.804V32h-3.61V.55h3.482v3.466C28.708 1.819 31.51 0 34.738 0c6.285 0 10.914 5.115 10.914 11.372 0 6.341-4.629 11.455-10.914 11.455zm0-19.529c-4.035 0-7.432 3.636-7.432 8.074 0 4.48 3.397 8.158 7.432 8.158 4.077 0 7.304-3.678 7.304-8.158 0-4.438-3.228-8.074-7.304-8.074zM47.224.55h3.61v21.77h-3.61V.55zm5.222 10.919c0-6.353 5.18-11.462 11.739-11.462s11.74 5.11 11.74 11.462c0 6.353-5.229 11.369-11.74 11.369s-11.739-5.017-11.739-11.37zm12.73-7.994c-5.976-.52-9.299 4.008-9.299 9.284 0 5.275 4.368 9.552 9.754 9.552a9.857 9.857 0 0 0 5.639-1.758l-1.352-3.427c1.397-1.449 2.204-3.451 2.204-5.663 0-4.372-3.067-7.627-6.946-7.99z"/><path fill="#8491a0" style="fill:var(--color1,#8491a0)" d="m62.029 13.657 10.65 8.625h5.666L67.97 13.657z"/></symbol><symbol id="brand-3" viewBox="0 0 31 32"><path fill="#8491a0" style="fill:var(--color1,#8491a0)" d="M29.545 0H.368a.365.365 0 0 0-.362.304.37.37 0 0 0 .235.41l26.39 8.64c.03.01.063.009.092-.003s.054-.034.069-.062l3.938-7.305a1.341 1.341 0 0 0-.029-1.329 1.348 1.348 0 0 0-1.156-.656zM.006 30.542a.356.356 0 0 0 .67.17l5.076-9.404a1.344 1.344 0 0 1 1.185-.707h12.951a1.352 1.352 0 0 0 1.185-.707l3.87-7.175a.11.11 0 0 0-.002-.106.108.108 0 0 0-.092-.052H1.353a1.35 1.35 0 0 0-1.346 1.346v16.636z"/></symbol><symbol id="brand-4" viewBox="0 0 32 32"><path fill="#8491a0" style="fill:var(--color1,#8491a0)" d="M29.696 0H15.465C6.924 0 0 5.947 0 14.488v10.04C6.234 11.784 21.387 2.829 29.696 0z"/><path fill="#8491a0" style="fill:var(--color1,#8491a0)" d="M1.525 32h12.612c8.541 0 15.465-6.924 15.465-15.465V.739C16.435 8.05 7.425 19.43 1.525 32z"/></symbol><symbol id="twitter" viewBox="0 0 32 32"><path d="M29.333 9.163c-.92.394-1.97.657-3.153.788 1.051-.657 1.97-1.708 2.365-2.89-1.051.657-2.233 1.051-3.415 1.314-.92-1.051-2.365-1.708-3.941-1.708-3.021 0-5.386 2.365-5.386 5.255 0 .394 0 .788.131 1.182-4.466-.263-8.407-2.365-11.166-5.517a4.74 4.74 0 0 0-.788 2.627c0 1.839.92 3.415 2.365 4.466-.92 0-1.708-.263-2.496-.657v.131c0 2.627 1.839 4.729 4.335 5.255-.394.131-.92.131-1.445.131-.394 0-.657 0-1.051-.131.657 2.102 2.627 3.678 4.992 3.678-1.839 1.445-4.204 2.233-6.699 2.233-.394 0-.92 0-1.314-.131 2.365 1.576 5.255 2.365 8.276 2.365 9.852 0 15.369-8.144 15.369-15.107v-.657c1.445-.657 2.365-1.576 3.021-2.627z"/></symbol><symbol id="dribble" viewBox="0 0 32 32"><path d="M16 29.333C8.648 29.333 2.667 23.352 2.667 16S8.648 2.667 16 2.667 29.333 8.648 29.333 16 23.352 29.333 16 29.333zm11.245-11.508c-.39-.123-3.525-1.058-7.094-.487 1.49 4.093 2.096 7.427 2.212 8.12a11.41 11.41 0 0 0 4.882-7.633zm-6.796 8.676c-.169-.999-.831-4.481-2.43-8.636l-.075.025c-6.424 2.238-8.73 6.693-8.934 7.112a11.37 11.37 0 0 0 11.439 1.499zm-12.91-2.869c.258-.442 3.384-5.617 9.257-7.515.148-.048.298-.093.449-.135a38.269 38.269 0 0 0-.923-1.933C10.635 15.751 5.116 15.68 4.617 15.67c-.003.116-.006.231-.006.348a11.345 11.345 0 0 0 2.928 7.615zm-2.687-9.947c.509.007 5.202.027 10.529-1.388a72.912 72.912 0 0 0-4.222-6.587 11.43 11.43 0 0 0-6.306 7.974zm8.479-8.74a60.766 60.766 0 0 1 4.25 6.667c4.05-1.518 5.764-3.822 5.969-4.114-1.371-1.218-3.017-2.086-4.796-2.53s-3.64-.452-5.423-.023zm11.485 3.87c-.24.325-2.148 2.771-6.359 4.49a35.574 35.574 0 0 1 1.001 2.238c3.789-.477 7.555.287 7.93.367a11.33 11.33 0 0 0-2.572-7.094z"/></symbol><symbol id="linkedin" viewBox="0 0 32 32"><path d="M26.2 4H5.8C4.84 4 4 4.724 4 5.688v20.623c0 .965.84 1.688 1.8 1.688h20.4c.96 0 1.8-.724 1.8-1.688V5.688C28 4.844 27.16 4 26.2 4zM11.08 24.623h-3.6V13.166h3.6v11.457zm-1.8-13.146c-1.2 0-2.04-.965-2.04-2.05s.96-2.05 2.04-2.05 2.04.965 2.04 2.05c.12 1.206-.84 2.05-2.04 2.05zM24.4 24.623h-3.6v-5.548c0-1.327 0-3.015-1.8-3.015s-2.16 1.447-2.16 3.015v5.668h-3.6V13.286h3.36v1.568c.48-.965 1.68-1.809 3.36-1.809 3.6 0 4.32 2.412 4.32 5.427v6.151h.12z"/></symbol></defs></svg>